<?xml version="1.0" encoding="UTF-8"?>
<svg xmlns="http://www.w3.org/2000/svg" xmlns:xlink="http://www.w3.org/1999/xlink" width="854" height="480" viewBox="0 0 854 480">
<defs>
<g>
<g id="glyph-0-0">
<path d="M 0.398438 -2.042969 L 1.195312 -2.113281 C 1.230469 -1.796875 1.320312 -1.535156 1.457031 -1.332031 C 1.59375 -1.125 1.808594 -0.960938 2.097656 -0.835938 C 2.386719 -0.710938 2.710938 -0.648438 3.074219 -0.648438 C 3.394531 -0.648438 3.679688 -0.695312 3.921875 -0.789062 C 4.167969 -0.886719 4.351562 -1.015625 4.472656 -1.183594 C 4.59375 -1.347656 4.652344 -1.53125 4.652344 -1.726562 C 4.652344 -1.925781 4.59375 -2.101562 4.480469 -2.25 C 4.363281 -2.398438 4.171875 -2.523438 3.90625 -2.625 C 3.734375 -2.691406 3.359375 -2.796875 2.773438 -2.9375 C 2.1875 -3.078125 1.78125 -3.210938 1.546875 -3.332031 C 1.242188 -3.492188 1.015625 -3.691406 0.867188 -3.925781 C 0.71875 -4.160156 0.640625 -4.425781 0.640625 -4.71875 C 0.640625 -5.039062 0.734375 -5.339844 0.914062 -5.617188 C 1.097656 -5.898438 1.363281 -6.109375 1.714844 -6.253906 C 2.066406 -6.398438 2.453125 -6.472656 2.882812 -6.472656 C 3.355469 -6.472656 3.769531 -6.394531 4.128906 -6.242188 C 4.492188 -6.09375 4.765625 -5.867188 4.960938 -5.574219 C 5.15625 -5.277344 5.257812 -4.945312 5.273438 -4.570312 L 4.464844 -4.511719 C 4.421875 -4.910156 4.277344 -5.214844 4.027344 -5.421875 C 3.777344 -5.625 3.40625 -5.730469 2.917969 -5.730469 C 2.40625 -5.730469 2.035156 -5.636719 1.804688 -5.449219 C 1.570312 -5.261719 1.453125 -5.039062 1.453125 -4.773438 C 1.453125 -4.546875 1.535156 -4.359375 1.703125 -4.210938 C 1.863281 -4.0625 2.285156 -3.910156 2.972656 -3.757812 C 3.65625 -3.601562 4.125 -3.464844 4.378906 -3.351562 C 4.75 -3.179688 5.023438 -2.964844 5.199219 -2.703125 C 5.375 -2.441406 5.464844 -2.136719 5.464844 -1.796875 C 5.464844 -1.457031 5.367188 -1.140625 5.175781 -0.839844 C 4.980469 -0.539062 4.703125 -0.308594 4.339844 -0.140625 C 3.976562 0.0234375 3.566406 0.109375 3.113281 0.109375 C 2.535156 0.109375 2.054688 0.0234375 1.664062 -0.144531 C 1.273438 -0.3125 0.96875 -0.5625 0.75 -0.902344 C 0.527344 -1.238281 0.410156 -1.617188 0.398438 -2.042969 Z "/>
</g>
<g id="glyph-0-1">
<path d="M 0.550781 1.773438 L 0.464844 1.042969 C 0.636719 1.089844 0.785156 1.109375 0.910156 1.109375 C 1.085938 1.109375 1.222656 1.082031 1.328125 1.023438 C 1.433594 0.964844 1.519531 0.886719 1.585938 0.78125 C 1.632812 0.703125 1.714844 0.507812 1.824219 0.199219 C 1.835938 0.15625 1.859375 0.09375 1.890625 0.0078125 L 0.144531 -4.609375 L 0.984375 -4.609375 L 1.945312 -1.941406 C 2.070312 -1.601562 2.179688 -1.246094 2.277344 -0.871094 C 2.367188 -1.230469 2.476562 -1.582031 2.601562 -1.921875 L 3.585938 -4.609375 L 4.367188 -4.609375 L 2.613281 0.078125 C 2.425781 0.585938 2.277344 0.933594 2.175781 1.125 C 2.035156 1.382812 1.875 1.570312 1.695312 1.691406 C 1.519531 1.8125 1.304688 1.871094 1.054688 1.871094 C 0.902344 1.871094 0.738281 1.839844 0.550781 1.773438 Z "/>
</g>
<g id="glyph-0-2">
<path d="M 0.585938 0 L 0.585938 -4.609375 L 1.289062 -4.609375 L 1.289062 -3.953125 C 1.628906 -4.460938 2.117188 -4.714844 2.757812 -4.714844 C 3.035156 -4.714844 3.289062 -4.664062 3.523438 -4.5625 C 3.753906 -4.464844 3.929688 -4.332031 4.046875 -4.171875 C 4.160156 -4.007812 4.242188 -3.816406 4.289062 -3.59375 C 4.316406 -3.449219 4.332031 -3.195312 4.332031 -2.835938 L 4.332031 0 L 3.550781 0 L 3.550781 -2.804688 C 3.550781 -3.121094 3.519531 -3.359375 3.460938 -3.519531 C 3.398438 -3.675781 3.289062 -3.800781 3.136719 -3.894531 C 2.980469 -3.988281 2.800781 -4.035156 2.589844 -4.035156 C 2.257812 -4.035156 1.972656 -3.929688 1.730469 -3.71875 C 1.488281 -3.507812 1.367188 -3.109375 1.367188 -2.515625 L 1.367188 0 Z "/>
</g>
<g id="glyph-0-3">
<path d="M 2.292969 -0.699219 L 2.40625 -0.0078125 C 2.183594 0.0390625 1.988281 0.0625 1.8125 0.0625 C 1.53125 0.0625 1.3125 0.015625 1.15625 -0.0742188 C 1 -0.164062 0.886719 -0.28125 0.824219 -0.425781 C 0.761719 -0.574219 0.730469 -0.882812 0.730469 -1.351562 L 0.730469 -4 L 0.15625 -4 L 0.15625 -4.609375 L 0.730469 -4.609375 L 0.730469 -5.75 L 1.507812 -6.21875 L 1.507812 -4.609375 L 2.292969 -4.609375 L 2.292969 -4 L 1.507812 -4 L 1.507812 -1.304688 C 1.507812 -1.082031 1.519531 -0.941406 1.546875 -0.875 C 1.574219 -0.8125 1.621094 -0.761719 1.683594 -0.726562 C 1.746094 -0.6875 1.832031 -0.667969 1.949219 -0.667969 C 2.035156 -0.667969 2.148438 -0.679688 2.292969 -0.699219 Z "/>
</g>
<g id="glyph-0-4">
<path d="M 0.585938 0 L 0.585938 -6.363281 L 1.367188 -6.363281 L 1.367188 -4.078125 C 1.730469 -4.503906 2.191406 -4.714844 2.746094 -4.714844 C 3.089844 -4.714844 3.386719 -4.648438 3.636719 -4.511719 C 3.890625 -4.378906 4.070312 -4.191406 4.175781 -3.953125 C 4.285156 -3.71875 4.339844 -3.371094 4.339844 -2.921875 L 4.339844 0 L 3.558594 0 L 3.558594 -2.921875 C 3.558594 -3.3125 3.472656 -3.597656 3.304688 -3.773438 C 3.136719 -3.953125 2.898438 -4.039062 2.585938 -4.039062 C 2.355469 -4.039062 2.136719 -3.980469 1.933594 -3.859375 C 1.730469 -3.742188 1.585938 -3.578125 1.496094 -3.371094 C 1.410156 -3.167969 1.367188 -2.882812 1.367188 -2.523438 L 1.367188 0 Z "/>
</g>
<g id="glyph-0-5">
<path d="M 3.742188 -1.484375 L 4.550781 -1.382812 C 4.421875 -0.914062 4.1875 -0.546875 3.839844 -0.285156 C 3.496094 -0.0273438 3.058594 0.105469 2.523438 0.105469 C 1.847656 0.105469 1.3125 -0.101562 0.917969 -0.519531 C 0.523438 -0.933594 0.324219 -1.515625 0.324219 -2.265625 C 0.324219 -3.042969 0.523438 -3.644531 0.925781 -4.070312 C 1.324219 -4.5 1.84375 -4.714844 2.476562 -4.714844 C 3.09375 -4.714844 3.597656 -4.503906 3.988281 -4.085938 C 4.378906 -3.664062 4.574219 -3.074219 4.574219 -2.3125 C 4.574219 -2.265625 4.574219 -2.199219 4.570312 -2.105469 L 1.132812 -2.105469 C 1.160156 -1.597656 1.304688 -1.210938 1.5625 -0.941406 C 1.820312 -0.671875 2.140625 -0.539062 2.527344 -0.539062 C 2.8125 -0.539062 3.058594 -0.613281 3.257812 -0.765625 C 3.460938 -0.914062 3.621094 -1.15625 3.742188 -1.484375 M 1.175781 -2.746094 L 3.75 -2.746094 C 3.714844 -3.136719 3.617188 -3.425781 3.453125 -3.621094 C 3.207031 -3.921875 2.882812 -4.070312 2.488281 -4.070312 C 2.128906 -4.070312 1.828125 -3.953125 1.582031 -3.710938 C 1.335938 -3.472656 1.203125 -3.148438 1.175781 -2.746094 Z "/>
</g>
<g id="glyph-0-6">
<path d="M 0.589844 -5.464844 L 0.589844 -6.363281 L 1.371094 -6.363281 L 1.371094 -5.464844 L 0.589844 -5.464844 M 0.589844 0 L 0.589844 -4.609375 L 1.371094 -4.609375 L 1.371094 0 Z "/>
</g>
<g id="glyph-0-7">
<path d="M 3.59375 -1.6875 L 4.363281 -1.589844 C 4.277344 -1.058594 4.0625 -0.644531 3.71875 -0.34375 C 3.371094 -0.046875 2.945312 0.105469 2.445312 0.105469 C 1.8125 0.105469 1.304688 -0.101562 0.921875 -0.515625 C 0.539062 -0.925781 0.347656 -1.519531 0.347656 -2.289062 C 0.347656 -2.785156 0.429688 -3.21875 0.59375 -3.59375 C 0.757812 -3.96875 1.011719 -4.246094 1.347656 -4.433594 C 1.683594 -4.621094 2.050781 -4.714844 2.449219 -4.714844 C 2.949219 -4.714844 3.359375 -4.585938 3.675781 -4.332031 C 3.996094 -4.082031 4.199219 -3.722656 4.289062 -3.253906 L 3.527344 -3.136719 C 3.457031 -3.449219 3.328125 -3.679688 3.144531 -3.835938 C 2.960938 -3.992188 2.738281 -4.070312 2.476562 -4.070312 C 2.085938 -4.070312 1.765625 -3.929688 1.519531 -3.648438 C 1.273438 -3.367188 1.148438 -2.917969 1.148438 -2.308594 C 1.148438 -1.691406 1.269531 -1.238281 1.507812 -0.960938 C 1.742188 -0.679688 2.054688 -0.539062 2.433594 -0.539062 C 2.742188 -0.539062 2.996094 -0.632812 3.203125 -0.820312 C 3.410156 -1.007812 3.539062 -1.296875 3.59375 -1.6875 Z "/>
</g>
<g id="glyph-0-8">
</g>
<g id="glyph-0-9">
<path d="M 2.304688 0 L 2.304688 -5.613281 L 0.207031 -5.613281 L 0.207031 -6.363281 L 5.253906 -6.363281 L 5.253906 -5.613281 L 3.148438 -5.613281 L 3.148438 0 Z "/>
</g>
<g id="glyph-0-10">
<path d="M 0.0664062 0 L 1.75 -2.394531 L 0.191406 -4.609375 L 1.167969 -4.609375 L 1.875 -3.527344 C 2.007812 -3.324219 2.117188 -3.152344 2.195312 -3.011719 C 2.324219 -3.203125 2.441406 -3.371094 2.546875 -3.519531 L 3.324219 -4.609375 L 4.257812 -4.609375 L 2.664062 -2.4375 L 4.378906 0 L 3.421875 0 L 2.472656 -1.433594 L 2.222656 -1.820312 L 1.011719 0 Z "/>
</g>
</g>
</defs>
<g fill="rgb(51.372549%, 75.686275%, 40.392157%)" fill-opacity="1">
<use xlink:href="#glyph-0-0" x="30" y="28.046875"/>
<use xlink:href="#glyph-0-1" x="36" y="28.046875"/>
<use xlink:href="#glyph-0-2" x="40" y="28.046875"/>
<use xlink:href="#glyph-0-3" x="45" y="28.046875"/>
<use xlink:href="#glyph-0-4" x="47" y="28.046875"/>
<use xlink:href="#glyph-0-5" x="52" y="28.046875"/>
<use xlink:href="#glyph-0-3" x="57" y="28.046875"/>
<use xlink:href="#glyph-0-6" x="59" y="28.046875"/>
<use xlink:href="#glyph-0-7" x="61" y="28.046875"/>
<use xlink:href="#glyph-0-8" x="65" y="28.046875"/>
<use xlink:href="#glyph-0-9" x="67" y="28.046875"/>
<use xlink:href="#glyph-0-5" x="71" y="28.046875"/>
<use xlink:href="#glyph-0-10" x="76" y="28.046875"/>
<use xlink:href="#glyph-0-3" x="80" y="28.046875"/>
</g>
</svg>
